<?xml version="1.0" encoding="UTF-8"?>
<svg width="28" height="28" viewBox="0 0 28 28" fill="none" xmlns="http://www.w3.org/2000/svg">
    <mask id="path-1-outside-1_506_9433" maskUnits="userSpaceOnUse" x="0" y="0" width="28" height="28" fill="black">
        <rect fill="white" width="28" height="28"/>
        <path fill-rule="evenodd" clip-rule="evenodd" d="M15.7621 4.649C14.7467 3.78367 13.2533 3.78367 12.2378 4.649L10.9817 5.71945C10.784 5.888 10.538 5.98986 10.279 6.01053L8.63387 6.14181C7.30398 6.24794 6.24794 7.30398 6.14181 8.63387L6.01053 10.279C5.98986 10.538 5.888 10.784 5.71945 10.9817L4.649 12.2378C3.78367 13.2533 3.78367 14.7467 4.649 15.7621L5.71945 17.0183C5.888 17.216 5.98986 17.462 6.01053 17.721L6.14181 19.3661C6.24794 20.696 7.30398 21.7521 8.63387 21.8582L10.279 21.9895C10.538 22.0101 10.784 22.112 10.9817 22.2806L12.2378 23.351C13.2533 24.2163 14.7467 24.2163 15.7621 23.351L17.0183 22.2806C17.216 22.112 17.462 22.0101 17.721 21.9895L19.3661 21.8582C20.696 21.7521 21.7521 20.696 21.8582 19.3661L21.9895 17.721C22.0101 17.462 22.112 17.216 22.2806 17.0183L23.351 15.7621C24.2163 14.7467 24.2163 13.2533 23.351 12.2378L22.2805 10.9817C22.112 10.784 22.0101 10.538 21.9895 10.279L21.8582 8.63387C21.7521 7.30398 20.696 6.24794 19.3661 6.14181L17.721 6.01053C17.462 5.98986 17.216 5.888 17.0183 5.71945L15.7621 4.649ZM19.2883 11.7162C19.5583 11.417 19.5583 10.932 19.2883 10.6329C19.0184 10.3338 18.5807 10.3338 18.3107 10.6329L13.3298 16.3385C13.0598 16.6377 12.6221 16.6377 12.3522 16.3385L9.87343 13.5919C9.60347 13.2928 9.16578 13.2928 8.89583 13.5919C8.62587 13.891 8.62587 14.376 8.89583 14.6752L11.3746 17.4218C12.1844 18.3192 13.4975 18.3192 14.3074 17.4218L19.2883 11.7162Z"/>
    </mask>
    <path fill-rule="evenodd" clip-rule="evenodd" d="M15.7621 4.649C14.7467 3.78367 13.2533 3.78367 12.2378 4.649L10.9817 5.71945C10.784 5.888 10.538 5.98986 10.279 6.01053L8.63387 6.14181C7.30398 6.24794 6.24794 7.30398 6.14181 8.63387L6.01053 10.279C5.98986 10.538 5.888 10.784 5.71945 10.9817L4.649 12.2378C3.78367 13.2533 3.78367 14.7467 4.649 15.7621L5.71945 17.0183C5.888 17.216 5.98986 17.462 6.01053 17.721L6.14181 19.3661C6.24794 20.696 7.30398 21.7521 8.63387 21.8582L10.279 21.9895C10.538 22.0101 10.784 22.112 10.9817 22.2806L12.2378 23.351C13.2533 24.2163 14.7467 24.2163 15.7621 23.351L17.0183 22.2806C17.216 22.112 17.462 22.0101 17.721 21.9895L19.3661 21.8582C20.696 21.7521 21.7521 20.696 21.8582 19.3661L21.9895 17.721C22.0101 17.462 22.112 17.216 22.2806 17.0183L23.351 15.7621C24.2163 14.7467 24.2163 13.2533 23.351 12.2378L22.2805 10.9817C22.112 10.784 22.0101 10.538 21.9895 10.279L21.8582 8.63387C21.7521 7.30398 20.696 6.24794 19.3661 6.14181L17.721 6.01053C17.462 5.98986 17.216 5.888 17.0183 5.71945L15.7621 4.649ZM19.2883 11.7162C19.5583 11.417 19.5583 10.932 19.2883 10.6329C19.0184 10.3338 18.5807 10.3338 18.3107 10.6329L13.3298 16.3385C13.0598 16.6377 12.6221 16.6377 12.3522 16.3385L9.87343 13.5919C9.60347 13.2928 9.16578 13.2928 8.89583 13.5919C8.62587 13.891 8.62587 14.376 8.89583 14.6752L11.3746 17.4218C12.1844 18.3192 13.4975 18.3192 14.3074 17.4218L19.2883 11.7162Z" fill="#0F8AFA"/>
<!--    <path d="M12.2378 4.649L14.2287 6.98514L14.2287 6.98514L12.2378 4.649ZM15.7621 4.649L13.7713 6.98514L13.7713 6.98514L15.7621 4.649ZM10.9817 5.71945L12.9726 8.05559L12.9726 8.05559L10.9817 5.71945ZM10.279 6.01053L10.5232 9.07018H10.5232L10.279 6.01053ZM8.63387 6.14181L8.38971 3.08217H8.38971L8.63387 6.14181ZM6.14181 8.63387L9.20146 8.87803L6.14181 8.63387ZM6.01053 10.279L2.95089 10.0348V10.0348L6.01053 10.279ZM5.71945 10.9817L8.05559 12.9726H8.05559L5.71945 10.9817ZM4.649 12.2378L2.31286 10.247L4.649 12.2378ZM4.649 15.7621L6.98514 13.7713L6.98514 13.7713L4.649 15.7621ZM5.71945 17.0183L3.3833 19.0091L3.38331 19.0091L5.71945 17.0183ZM6.01053 17.721L2.95089 17.9652L2.95089 17.9652L6.01053 17.721ZM6.14181 19.3661L3.08217 19.6103H3.08217L6.14181 19.3661ZM8.63387 21.8582L8.38971 24.9178H8.38971L8.63387 21.8582ZM10.279 21.9895L10.5232 18.9298H10.5232L10.279 21.9895ZM10.9817 22.2806L8.99088 24.6167L8.99089 24.6167L10.9817 22.2806ZM12.2378 23.351L14.2287 21.0149L14.2287 21.0149L12.2378 23.351ZM15.7621 23.351L13.7713 21.0149H13.7713L15.7621 23.351ZM17.0183 22.2806L19.0091 24.6167L19.0091 24.6167L17.0183 22.2806ZM17.721 21.9895L17.4768 18.9298H17.4768L17.721 21.9895ZM19.3661 21.8582L19.6103 24.9178H19.6103L19.3661 21.8582ZM21.8582 19.3661L24.9178 19.6103V19.6103L21.8582 19.3661ZM21.9895 17.721L18.9298 17.4768L18.9298 17.4768L21.9895 17.721ZM22.2806 17.0183L24.6167 19.0091L24.6167 19.0091L22.2806 17.0183ZM23.351 15.7621L25.6871 17.753H25.6871L23.351 15.7621ZM23.351 12.2378L25.6871 10.247L25.6871 10.247L23.351 12.2378ZM22.2805 10.9817L19.9444 12.9726L19.9444 12.9726L22.2805 10.9817ZM21.9895 10.279L18.9298 10.5232L18.9298 10.5232L21.9895 10.279ZM21.8582 8.63387L24.9178 8.38971V8.38971L21.8582 8.63387ZM19.3661 6.14181L19.6103 3.08217L19.6103 3.08217L19.3661 6.14181ZM17.721 6.01053L17.4768 9.07018H17.4768L17.721 6.01053ZM17.0183 5.71945L19.0091 3.38331L19.0091 3.3833L17.0183 5.71945ZM19.2883 10.6329L17.0097 12.6893L17.0097 12.6893L19.2883 10.6329ZM19.2883 11.7162L17.0097 9.65975C16.9984 9.67227 16.9872 9.68489 16.9761 9.6976L19.2883 11.7162ZM18.3107 10.6329L16.0321 8.57651C16.0208 8.58903 16.0096 8.60164 15.9985 8.61435L18.3107 10.6329ZM13.3298 16.3385L15.6084 18.3949C15.6197 18.3824 15.6309 18.3698 15.642 18.3571L13.3298 16.3385ZM12.3522 16.3385L10.0735 18.3949L10.0735 18.3949L12.3522 16.3385ZM9.87343 13.5919L7.59478 15.6483L7.59478 15.6483L9.87343 13.5919ZM8.89583 13.5919L11.1745 15.6483L11.1745 15.6483L8.89583 13.5919ZM8.89583 14.6752L6.61718 16.7316H6.61718L8.89583 14.6752ZM11.3746 17.4218L13.6532 15.3654V15.3654L11.3746 17.4218ZM14.3074 17.4218L16.586 19.4782C16.5973 19.4657 16.6085 19.453 16.6196 19.4403L14.3074 17.4218ZM14.2287 6.98514C14.0969 7.09745 13.9031 7.09745 13.7713 6.98514L17.753 2.31286C15.5904 0.469886 12.4096 0.469886 10.247 2.31286L14.2287 6.98514ZM12.9726 8.05559L14.2287 6.98514L10.247 2.31285L8.99089 3.3833L12.9726 8.05559ZM10.5232 9.07018C11.426 8.99813 12.2832 8.64308 12.9726 8.05559L8.9909 3.3833C9.28471 3.13292 9.65002 2.9816 10.0348 2.95089L10.5232 9.07018ZM8.87803 9.20146L10.5232 9.07018L10.0348 2.95089L8.38971 3.08217L8.87803 9.20146ZM9.20146 8.87803C9.18769 9.05063 9.05063 9.18769 8.87803 9.20146L8.38971 3.08217C5.55733 3.30819 3.30819 5.55734 3.08217 8.38971L9.20146 8.87803ZM9.07018 10.5232L9.20146 8.87803L3.08217 8.38971L2.95089 10.0348L9.07018 10.5232ZM8.05559 12.9726C8.64308 12.2832 8.99813 11.426 9.07018 10.5232L2.95089 10.0348C2.9816 9.65003 3.13291 9.28471 3.3833 8.99089L8.05559 12.9726ZM6.98514 14.2287L8.05559 12.9726L3.3833 8.99089L2.31286 10.247L6.98514 14.2287ZM6.98514 13.7713C7.09745 13.9031 7.09745 14.0969 6.98514 14.2287L2.31286 10.247C0.469886 12.4096 0.469886 15.5904 2.31286 17.753L6.98514 13.7713ZM8.05559 15.0274L6.98514 13.7713L2.31285 17.753L3.3833 19.0091L8.05559 15.0274ZM9.07018 17.4768C8.99813 16.574 8.64308 15.7168 8.05559 15.0274L3.38331 19.0091C3.13291 18.7153 2.9816 18.35 2.95089 17.9652L9.07018 17.4768ZM9.20146 19.122L9.07018 17.4768L2.95089 17.9652L3.08217 19.6103L9.20146 19.122ZM8.87803 18.7985C9.05063 18.8123 9.18769 18.9494 9.20146 19.122L3.08217 19.6103C3.3082 22.4427 5.55733 24.6918 8.38971 24.9178L8.87803 18.7985ZM10.5232 18.9298L8.87803 18.7985L8.38971 24.9178L10.0348 25.0491L10.5232 18.9298ZM12.9726 19.9444C12.2832 19.3569 11.426 19.0019 10.5232 18.9298L10.0348 25.0491C9.65002 25.0184 9.2847 24.8671 8.99088 24.6167L12.9726 19.9444ZM14.2287 21.0149L12.9726 19.9444L8.99089 24.6167L10.247 25.6871L14.2287 21.0149ZM13.7713 21.0149C13.9031 20.9025 14.0969 20.9025 14.2287 21.0149L10.247 25.6871C12.4096 27.5301 15.5904 27.5301 17.753 25.6871L13.7713 21.0149ZM15.0274 19.9444L13.7713 21.0149L17.753 25.6871L19.0091 24.6167L15.0274 19.9444ZM17.4768 18.9298C16.574 19.0019 15.7168 19.3569 15.0274 19.9444L19.0091 24.6167C18.7153 24.8671 18.35 25.0184 17.9652 25.0491L17.4768 18.9298ZM19.122 18.7985L17.4768 18.9298L17.9652 25.0491L19.6103 24.9178L19.122 18.7985ZM18.7985 19.122C18.8123 18.9494 18.9494 18.8123 19.122 18.7985L19.6103 24.9178C22.4427 24.6918 24.6918 22.4427 24.9178 19.6103L18.7985 19.122ZM18.9298 17.4768L18.7985 19.122L24.9178 19.6103L25.0491 17.9652L18.9298 17.4768ZM19.9444 15.0274C19.3569 15.7168 19.0019 16.5739 18.9298 17.4768L25.0491 17.9652C25.0184 18.35 24.8671 18.7153 24.6167 19.0091L19.9444 15.0274ZM21.0149 13.7713L19.9444 15.0274L24.6167 19.0091L25.6871 17.753L21.0149 13.7713ZM21.0149 14.2287C20.9025 14.0969 20.9025 13.9031 21.0149 13.7713L25.6871 17.753C27.5301 15.5904 27.5301 12.4096 25.6871 10.247L21.0149 14.2287ZM19.9444 12.9726L21.0149 14.2287L25.6871 10.247L24.6167 8.99089L19.9444 12.9726ZM18.9298 10.5232C19.0019 11.4261 19.3569 12.2832 19.9444 12.9726L24.6167 8.9909C24.8671 9.28472 25.0184 9.65002 25.0491 10.0348L18.9298 10.5232ZM18.7985 8.87803L18.9298 10.5232L25.0491 10.0348L24.9178 8.38971L18.7985 8.87803ZM19.122 9.20146C18.9494 9.18769 18.8123 9.05063 18.7985 8.87804L24.9178 8.38971C24.6918 5.55734 22.4427 3.3082 19.6103 3.08217L19.122 9.20146ZM17.4768 9.07018L19.122 9.20146L19.6103 3.08217L17.9652 2.95089L17.4768 9.07018ZM15.0274 8.05558C15.7168 8.64308 16.5739 8.99813 17.4768 9.07018L17.9652 2.95089C18.35 2.9816 18.7153 3.13292 19.0091 3.38331L15.0274 8.05558ZM13.7713 6.98514L15.0274 8.05559L19.0091 3.3833L17.753 2.31285L13.7713 6.98514ZM17.0097 12.6893C16.2253 11.8202 16.2253 10.5289 17.0097 9.65975L21.567 13.7726C22.8912 12.3052 22.8912 10.0439 21.567 8.5765L17.0097 12.6893ZM20.5894 12.6893C19.6404 13.7408 17.9586 13.7408 17.0097 12.6893L21.567 8.57651C20.0781 6.92676 17.5209 6.92676 16.0321 8.57651L20.5894 12.6893ZM15.642 18.3571L20.623 12.6515L15.9985 8.61435L11.0175 14.32L15.642 18.3571ZM10.0735 18.3949C11.5624 20.0447 14.1196 20.0447 15.6084 18.3949L11.0511 14.2821C12.0001 13.2306 13.6819 13.2306 14.6308 14.2821L10.0735 18.3949ZM7.59478 15.6483L10.0735 18.3949L14.6308 14.2821L12.1521 11.5355L7.59478 15.6483ZM11.1745 15.6483C10.2255 16.6998 8.54372 16.6998 7.59478 15.6483L12.1521 11.5355C10.6632 9.88575 8.10603 9.88575 6.61718 11.5355L11.1745 15.6483ZM11.1745 12.6187C11.9588 13.4879 11.9588 14.7792 11.1745 15.6483L6.61719 11.5355C5.29292 13.0029 5.29293 15.2642 6.61718 16.7316L11.1745 12.6187ZM13.6532 15.3654L11.1745 12.6187L6.61718 16.7316L9.09592 19.4782L13.6532 15.3654ZM12.0287 15.3654C12.1937 15.1825 12.4852 15.0254 12.841 15.0254C13.1967 15.0254 13.4882 15.1825 13.6532 15.3654L9.09592 19.4782C11.1247 21.7262 14.5573 21.7262 16.586 19.4782L12.0287 15.3654ZM16.9761 9.6976L11.9951 15.4032L16.6196 19.4403L21.6006 13.7347L16.9761 9.6976Z" fill="#F5F5F5" mask="url(#path-1-outside-1_506_9433)"/>-->
</svg>
