<?xml version="1.0" encoding="UTF-8"?>
<svg version="1.1" xmlns="http://www.w3.org/2000/svg" width="436" height="397">
<path d="M0 0 C99.66 0 199.32 0 302 0 C302.33 8.58 302.66 17.16 303 26 C305.88011071 31.06342044 307.22745989 33.27883689 311 37 C314 41.39333333 314 41.39333333 314 45 C314.66 45 315.32 45 316 45 C317.10644531 46.48681641 317.10644531 46.48681641 318.328125 48.6015625 C318.79114014 49.39095215 319.25415527 50.1803418 319.73120117 50.99365234 C320.23240479 51.86199707 320.7336084 52.7303418 321.25 53.625 C325.76218634 61.29786313 330.3915545 68.87603928 335.1875 76.375 C335.78030762 77.30256104 336.37311523 78.23012207 336.98388672 79.18579102 C340.96448471 85.40263644 344.96744002 91.60507025 348.96875 97.80859375 C351.79854059 102.25463012 354.54220151 106.75071114 357.2734375 111.2578125 C358.9115843 113.96882748 358.9115843 113.96882748 360.7265625 116.1796875 C362 118 362 118 362 121 C362.66 121 363.32 121 364 121 C366.01648397 125.03296795 365.1848834 130.19248663 365.1875 134.625 C365.19974609 135.69363281 365.21199219 136.76226562 365.22460938 137.86328125 C365.24364471 148.18043483 363.76506453 155.91492288 357 164 C347.98673499 172.55785793 336.01175841 176.41171663 323.75 176.3125 C323.00983643 176.30686035 322.26967285 176.3012207 321.50708008 176.29541016 C307.47546562 175.9882928 294.02240167 171.02240167 284 161 C284 160.34 284 159.68 284 159 C283.34 159 282.68 159 282 159 C276.702121 150.08548773 276.39621885 141.69516177 276.36547852 131.54296875 C276.30649236 125.49030622 275.81765467 121.37011832 273 116 C272.27490234 114.42798828 272.27490234 114.42798828 271.53515625 112.82421875 C270.80619141 111.27154297 270.80619141 111.27154297 270.0625 109.6875 C268.28892239 105.86648354 266.58386879 102.05301683 265.0625 98.125 C263.48853368 94.08375845 261.7024525 90.17775656 259.84765625 86.2578125 C255.87959927 77.81781828 252.11950252 69.29095959 248.375 60.75 C247.09207707 57.82771518 245.80808378 54.9059026 244.5234375 51.984375 C244.21799011 51.28920776 243.91254272 50.59404053 243.59783936 49.87780762 C241.45113189 45.00063508 239.2610991 40.14482017 237.02978516 35.30566406 C235.95467141 32.89851039 234.97910997 30.44777492 234 28 C215.85 27.67 197.7 27.34 179 27 C182.89653894 53.83382086 182.89653894 53.83382086 186.921875 80.6484375 C187.0800621 81.68408844 187.23824921 82.71973938 187.40122986 83.78677368 C188.17314517 88.83443248 188.9483016 93.88157619 189.72680664 98.92822266 C190.0118959 100.78547956 190.29697145 102.64273857 190.58203125 104.5 C190.71095764 105.32970306 190.83988403 106.15940613 190.97271729 107.01425171 C192.38586205 116.23994716 193.18139227 125.22377319 193.1875 134.5625 C193.19974609 135.55185547 193.21199219 136.54121094 193.22460938 137.56054688 C193.24149692 146.04372204 192.52000155 153.17262966 187 160 C178.62092671 168.34256317 170.2695441 171.86220537 159 175 C158.03900391 175.29197266 158.03900391 175.29197266 157.05859375 175.58984375 C144.60995809 178.0701222 131.2104614 175.68670814 120.2421875 169.42578125 C114.15652235 165.00078066 107.46292062 158.62163581 106 151 C104.64334576 130.40461486 106.55682308 110.41840639 109.86106873 90.12573242 C111.30231922 81.25490143 112.54302484 72.35617984 113.79656982 63.45724487 C114.41456536 59.07873927 115.04149582 54.70151798 115.66796875 50.32421875 C115.87919716 48.84595395 116.09037926 47.36768253 116.30151367 45.8894043 C117.20100911 39.5929362 118.10050456 33.2964681 119 27 C93.755 27.495 93.755 27.495 68 28 C65.03 34.6 62.06 41.2 59 48 C55.55438207 55.46550552 52.08650918 62.89318517 48.37109375 70.2265625 C46.56715103 73.87556344 44.84819482 77.56233049 43.125 81.25 C40.05487588 87.81850307 36.86013481 94.30786919 33.59375 100.78125 C31.71198508 104.58167719 29.95293948 108.42644234 28.23828125 112.3046875 C27 115 27 115 25.98168945 116.64599609 C21.77747872 123.79903892 22.51135916 131.19695874 22.59960938 139.26953125 C22.51016102 148.28803028 20.5358678 154.79518424 14.6875 161.75 C13.800625 162.4925 12.91375 163.235 12 164 C11.48308594 164.47953125 10.96617188 164.9590625 10.43359375 165.453125 C-0.58174079 174.87444785 -16.66710215 176.89128573 -30.62695312 176.22216797 C-41.71633176 175.18396482 -51.33907911 170.21230929 -58.8046875 162.01953125 C-67.03672372 151.83780223 -66.210659 138.54345783 -65.41894531 126.04052734 C-64.54036324 119.66415137 -61.35987119 115.36135286 -57.27880859 110.57421875 C-55.03662371 107.81407974 -53.24390473 104.76912439 -51.375 101.75 C-48.26303206 96.87201537 -45.00705256 92.11373129 -41.66015625 87.39453125 C-39.35676825 84.0722328 -37.22258384 80.65190458 -35.0703125 77.23046875 C-31.99988314 72.4394403 -28.81211279 67.72806625 -25.63647461 63.00634766 C-21.63502482 57.02711202 -17.80830424 50.95326152 -14.12182617 44.7746582 C-13.13323124 43.1502855 -12.07347015 41.56957588 -11 40 C-10.34 40 -9.68 40 -9 40 C-8.34 38.35 -7.68 36.7 -7 35 C-5.02 31.7 -3.04 28.4 -1 25 C-0.67 16.75 -0.34 8.5 0 0 Z " fill="#FE851C" transform="translate(66,0)"/>
<path d="M0 0 C0.99 0 1.98 0 3 0 C3.515625 0.70125 4.03125 1.4025 4.5625 2.125 C11.24257671 10.00406484 22.91740857 14.53138724 33 16 C36.27181253 16.16547699 39.53697619 16.18508975 42.8125 16.1875 C43.67681641 16.19974609 44.54113281 16.21199219 45.43164062 16.22460938 C59.35532173 16.25613469 72.62782547 10.86742732 84 3 C84.66 2.01 85.32 1.02 86 0 C89 0 89 0 91.375 2.25 C92.24125 3.1575 93.1075 4.065 94 5 C98.19517904 8.84558079 102.74120679 10.97797864 108 13 C108.95169067 13.38381836 108.95169067 13.38381836 109.92260742 13.77539062 C115.95912098 16.03313384 121.40095195 16.47089446 127.8125 16.375 C128.78155273 16.36629883 129.75060547 16.35759766 130.74902344 16.34863281 C137.85208013 16.20328345 144.27794218 15.40073494 151 13 C151.83015625 12.74476563 152.6603125 12.48953125 153.515625 12.2265625 C160.09485144 9.97141885 165.04415558 6.12167037 170.3359375 1.73046875 C173 0 173 0 175.3515625 0.23828125 C175.89554688 0.48964844 176.43953125 0.74101562 177 1 C177 1.66 177 2.32 177 3 C177.680625 3.226875 178.36125 3.45375 179.0625 3.6875 C182 5 182 5 184.9375 7.3125 C197.32669113 16.50888196 214.20175407 17.16563553 229 16 C233.53626067 15.07814421 237.69622761 13.68172618 242 12 C243.76801677 11.40818486 245.53859083 10.82391179 247.3125 10.25 C248.529375 9.8375 249.74625 9.425 251 9 C251 8.34 251 7.68 251 7 C252.65532623 5.98133771 254.32260138 4.98189187 256 4 C256.33 3.34 256.66 2.68 257 2 C257.66 2 258.32 2 259 2 C259 1.34 259 0.68 259 0 C262 0 262 0 264.25 2.1875 C265.1575 3.115625 266.065 4.04375 267 5 C268.07947747 5.90528306 269.1851259 6.78011144 270.3125 7.625 C270.82425781 8.00914062 271.33601563 8.39328125 271.86328125 8.7890625 C275.04648416 10.59307146 278.57410613 11.7152898 282 13 C282 22.57 282 32.14 282 42 C247.68 42 213.36 42 178 42 C178 45.63 178 49.26 178 53 C165.97918472 57.00693843 152.67105187 54 140 54 C139.67 93.6 139.34 133.2 139 174 C152.2 174 165.4 174 179 174 C179 183.24 179 192.48 179 202 C113.66 202 48.32 202 -19 202 C-19.8700174 197.64991299 -20.12482079 193.7976055 -20.08229065 189.41337585 C-20.07906152 188.6577301 -20.07583239 187.90208434 -20.07250541 187.12354022 C-20.06045937 184.59622405 -20.04108058 182.06901804 -20.02172852 179.54174805 C-20.01158265 177.72822812 -20.00188931 175.91470562 -19.99261475 174.10118103 C-19.96616462 169.1801109 -19.93337879 164.2591009 -19.89946485 159.33807731 C-19.86509128 154.19446641 -19.83653143 149.05082333 -19.80735779 143.90718079 C-19.75123395 134.16792824 -19.68987331 124.42871598 -19.62663645 114.68950731 C-19.55489546 103.60135508 -19.4889845 92.51317061 -19.42356598 81.42497957 C-19.28886956 58.6166112 -19.14684288 35.80829317 -19 13 C-17.71086513 12.32845067 -16.41859796 11.66291141 -15.125 11 C-14.40570313 10.62875 -13.68640625 10.2575 -12.9453125 9.875 C-11 9 -11 9 -9 9 C-9 8.34 -9 7.68 -9 7 C-3.58823529 3 -3.58823529 3 -1 3 C-0.67 2.01 -0.34 1.02 0 0 Z M44 53 C44 92.6 44 132.2 44 173 C70.73 173 97.46 173 125 173 C125.03001771 150.84120943 125.03001771 150.84120943 125.05025387 128.68241596 C125.05580566 120.76084612 125.06286533 112.83928675 125.07543945 104.91772461 C125.0853866 98.64815306 125.0918535 92.37858939 125.09408849 86.10901016 C125.09539555 82.78734379 125.09899997 79.46570534 125.10573006 76.14404488 C125.11293628 72.44180053 125.11399112 68.73960369 125.11352539 65.03735352 C125.1189183 63.3736396 125.1189183 63.3736396 125.12442017 61.67631531 C125.12235817 60.17232681 125.12235817 60.17232681 125.12025452 58.63795471 C125.12117631 57.76132958 125.1220981 56.88470446 125.12304783 55.98151493 C125.21936513 53.99872447 125.21936513 53.99872447 124 53 C121.5050359 52.9049743 119.03797738 52.87443742 116.54272461 52.88647461 C115.35308153 52.88629381 115.35308153 52.88629381 114.13940525 52.88610935 C111.56035667 52.8868585 108.98137948 52.89448679 106.40234375 52.90234375 C104.81481969 52.90381316 103.22729515 52.90483388 101.63977051 52.90539551 C95.73900631 52.91064846 89.83825246 52.92460954 83.9375 52.9375 C70.758125 52.958125 57.57875 52.97875 44 53 Z " fill="#FE851B" transform="translate(86,166)"/>
<path d="M0 0 C52.8 0 105.6 0 160 0 C160.04030303 43.59444868 160.04030303 43.59444868 160.04882812 61.80273438 C160.05477165 74.39640712 160.06177479 86.99007319 160.07543945 99.58374023 C160.08538473 108.75388597 160.09185305 117.92402632 160.09408849 127.09417731 C160.09539587 131.95285144 160.09848339 136.81151016 160.10573006 141.67017937 C160.11248782 146.23780574 160.11461746 150.80541026 160.11310768 155.37304115 C160.11338412 157.05451959 160.11539069 158.73599871 160.11920547 160.41747284 C160.12413892 162.70302014 160.1229996 164.98848358 160.12025452 167.27403259 C160.12163721 169.19735365 160.12163721 169.19735365 160.12304783 171.15952969 C160 174 160 174 159 175 C157.15840977 175.09959621 155.31303033 175.13080411 153.46875 175.1328125 C152.34855469 175.13410156 151.22835937 175.13539063 150.07421875 175.13671875 C148.89472656 175.13285156 147.71523438 175.12898437 146.5 175.125 C144.73076172 175.13080078 144.73076172 175.13080078 142.92578125 175.13671875 C141.24548828 175.13478516 141.24548828 175.13478516 139.53125 175.1328125 C138.49548828 175.13168457 137.45972656 175.13055664 136.39257812 175.12939453 C134 175 134 175 133 174 C133 167.07 133 160.14 133 153 C97.69 153 62.38 153 26 153 C26 160.26 26 167.52 26 175 C17.42 175 8.84 175 0 175 C0 117.25 0 59.5 0 0 Z M46 42 C45.78756371 44.87100568 45.69604112 47.6429768 45.69921875 50.515625 C45.69493362 51.36421082 45.6906485 52.21279663 45.68623352 53.08709717 C45.6804835 54.88601794 45.67999489 56.68496197 45.68432617 58.48388672 C45.68747171 61.22534449 45.66408648 63.96570814 45.63867188 66.70703125 C45.63639738 68.45572781 45.63569608 70.20442726 45.63671875 71.953125 C45.627509 72.76896057 45.61829926 73.58479614 45.60881042 74.425354 C45.6556857 80.24940767 46.6871581 84.30233709 50.58618164 88.85009766 C54.48073976 90.70539944 58.36320518 90.42703255 62.62109375 90.3984375 C63.55800552 90.40130768 64.4949173 90.40417786 65.46022034 90.40713501 C67.43971359 90.4091745 69.41922705 90.40365267 71.39868164 90.39111328 C74.42314942 90.37507609 77.44627721 90.39095667 80.47070312 90.41015625 C82.39583628 90.40817345 84.32096859 90.404329 86.24609375 90.3984375 C87.14831161 90.40451019 88.05052948 90.41058289 88.98008728 90.4168396 C93.78678986 90.36321255 97.13698051 90.18681559 101 87 C103.12508244 83.81237635 103.5020163 81.73487777 104 78 C104.78503906 77.92523438 105.57007813 77.85046875 106.37890625 77.7734375 C113.55869457 76.87486277 118.31383849 75.68642405 123 70 C126.74873811 64.80013746 126.80950333 59.18820322 126 53 C124.33267206 48.12351399 121.27474221 44.81507414 117 42 C113.07531423 40.10790692 109.92915757 39.74737785 105.58911133 39.74121094 C104.31461624 39.73490662 103.04012115 39.72860229 101.727005 39.72210693 C100.34534567 39.72568579 98.9636876 39.72978752 97.58203125 39.734375 C96.1590722 39.73302705 94.7361136 39.73108543 93.31315613 39.72857666 C90.3383646 39.72563437 87.36369351 39.72989605 84.38891602 39.73925781 C80.57214496 39.75068313 76.75565423 39.74406797 72.93889332 39.73211288 C70.00414403 39.7248966 67.06946158 39.72718058 64.13471031 39.73236847 C62.72686416 39.733704 61.31901197 39.73206061 59.91117287 39.72740936 C57.94835141 39.72234482 55.98550869 39.7314293 54.02270508 39.74121094 C52.9052742 39.74280212 51.78784332 39.74439331 50.6365509 39.74603271 C47.84292607 39.7330404 47.84292607 39.7330404 46 42 Z M33 99 C33.98778476 103.93892382 34.73599724 105.43926971 38 109 C40.95090812 110.47545406 43.93735204 110.13874367 47.171875 110.12939453 C47.91022583 110.13114685 48.64857666 110.13289917 49.40930176 110.13470459 C51.8562249 110.13911512 54.30307609 110.13618792 56.75 110.1328125 C58.4462892 110.13348577 60.14257831 110.13445599 61.83886719 110.13571167 C65.39649371 110.13718756 68.95409514 110.13503757 72.51171875 110.13037109 C77.07845048 110.12467387 81.64512345 110.12795345 86.21185303 110.13394356 C89.71533656 110.1375521 93.21880609 110.13640923 96.72229004 110.13381577 C98.40645352 110.13314731 100.09061826 110.13397209 101.77478027 110.13629532 C104.12592957 110.13882662 106.47698287 110.13497447 108.828125 110.12939453 C109.52844849 110.13141876 110.22877197 110.13344299 110.95031738 110.13552856 C114.59814191 110.16399683 114.59814191 110.16399683 118 109 C118 108.34 118 107.68 118 107 C118.66 107 119.32 107 120 107 C122.04169485 104.09451118 123 102.59857954 123 99 C93.3 99 63.6 99 33 99 Z " fill="#FE851B" transform="translate(272,217)"/>
<path d="M0 0 C52.8 0 105.6 0 160 0 C160.04030303 43.59444868 160.04030303 43.59444868 160.04882812 61.80273438 C160.05477165 74.39640712 160.06177479 86.99007319 160.07543945 99.58374023 C160.08538473 108.75388597 160.09185305 117.92402632 160.09408849 127.09417731 C160.09539587 131.95285144 160.09848339 136.81151016 160.10573006 141.67017937 C160.11248782 146.23780574 160.11461746 150.80541026 160.11310768 155.37304115 C160.11338412 157.05451959 160.11539069 158.73599871 160.11920547 160.41747284 C160.12413892 162.70302014 160.1229996 164.98848358 160.12025452 167.27403259 C160.12163721 169.19735365 160.12163721 169.19735365 160.12304783 171.15952969 C160 174 160 174 159 175 C157.15840977 175.09959621 155.31303033 175.13080411 153.46875 175.1328125 C152.34855469 175.13410156 151.22835937 175.13539063 150.07421875 175.13671875 C148.89472656 175.13285156 147.71523438 175.12898437 146.5 175.125 C144.73076172 175.13080078 144.73076172 175.13080078 142.92578125 175.13671875 C141.24548828 175.13478516 141.24548828 175.13478516 139.53125 175.1328125 C138.49548828 175.13168457 137.45972656 175.13055664 136.39257812 175.12939453 C134 175 134 175 133 174 C133 167.07 133 160.14 133 153 C97.69 153.33 62.38 153.66 26 154 C25.67 160.27 25.34 166.54 25 173 C24.67 173 24.34 173 24 173 C24 165.74 24 158.48 24 151 C60.63 151 97.26 151 135 151 C135 158.26 135 165.52 135 173 C142.59 173 150.18 173 158 173 C157.67 172.01 157.34 171.02 157 170 C156.90771223 167.75530763 156.87807018 165.50789485 156.87974548 163.26130676 C156.87846385 162.22840666 156.87846385 162.22840666 156.87715632 161.17463988 C156.87550635 158.86224991 156.881015 156.54993214 156.88647461 154.23754883 C156.88675661 152.58195497 156.88659849 150.92636099 156.8860321 149.27076721 C156.88574464 144.77107746 156.89163322 140.27141424 156.89860606 135.77173066 C156.904848 131.07118504 156.90544407 126.37063885 156.90663147 121.67008972 C156.9097423 112.76660957 156.91795236 103.86314166 156.92798096 94.95966691 C156.94123728 82.93003769 156.94664401 70.90040513 156.95248318 58.87077045 C156.9618924 39.91383779 156.98181299 20.95693098 157 2 C80.275 1.505 80.275 1.505 2 1 C2 58.09 2 115.18 2 174 C8.6 174 15.2 174 22 174 C22 174.33 22 174.66 22 175 C14.74 175 7.48 175 0 175 C0 117.25 0 59.5 0 0 Z " fill="#FE8D29" transform="translate(272,217)"/>
<path d="M0 0 C2.64590014 -0.02684679 5.29153096 -0.04676357 7.9375 -0.0625 C8.69224609 -0.07087891 9.44699219 -0.07925781 10.22460938 -0.08789062 C12.14994313 -0.09652441 14.07535581 -0.05224333 16 0 C17.71567792 1.71567792 17.13015825 3.97372735 17.1328125 6.3125 C17.13474609 7.92511719 17.13474609 7.92511719 17.13671875 9.5703125 C17.13285156 10.70210938 17.12898438 11.83390625 17.125 13 C17.13080078 14.69769531 17.13080078 14.69769531 17.13671875 16.4296875 C17.13542969 17.50476563 17.13414062 18.57984375 17.1328125 19.6875 C17.13168457 20.68136719 17.13055664 21.67523438 17.12939453 22.69921875 C17 25 17 25 16 26 C13.48863896 26.09975032 11.01096585 26.13882183 8.5 26.125 C7.79746094 26.12886719 7.09492188 26.13273437 6.37109375 26.13671875 C1.12661378 26.12661378 1.12661378 26.12661378 0 25 C-0.08737645 23.14630389 -0.10698153 21.28932459 -0.09765625 19.43359375 C-0.09443359 18.30888672 -0.09121094 17.18417969 -0.08789062 16.02539062 C-0.07951172 14.84138672 -0.07113281 13.65738281 -0.0625 12.4375 C-0.05798828 11.24962891 -0.05347656 10.06175781 -0.04882812 8.83789062 C-0.03699675 5.89187774 -0.02051287 2.94596319 0 0 Z " fill="#FE851B" transform="translate(177,270)"/>
<path d="M0 0 C1.48831242 0.00667405 2.97660807 0.01863442 4.46484375 0.03515625 C5.22345703 0.03966797 5.98207031 0.04417969 6.76367188 0.04882812 C8.64326246 0.06064945 10.52281274 0.07858547 12.40234375 0.09765625 C12.43121126 4.24347512 12.44909702 8.38926841 12.46484375 12.53515625 C12.47322266 13.71916016 12.48160156 14.90316406 12.49023438 16.12304688 C12.49506836 17.81010742 12.49506836 17.81010742 12.5 19.53125 C12.50785522 21.0944397 12.50785522 21.0944397 12.51586914 22.68920898 C12.40234375 25.09765625 12.40234375 25.09765625 11.40234375 26.09765625 C8.87184973 26.17079192 6.36929538 26.19013152 3.83984375 26.16015625 C3.12892578 26.15564453 2.41800781 26.15113281 1.68554688 26.14648438 C-0.07555638 26.13466489 -1.83661661 26.11672888 -3.59765625 26.09765625 C-4.59025243 23.11986771 -4.72657207 21.13522674 -4.73046875 18.02734375 C-4.73175781 17.04894531 -4.73304688 16.07054687 -4.734375 15.0625 C-4.73050781 14.04285156 -4.72664062 13.02320313 -4.72265625 11.97265625 C-4.72652344 10.94527344 -4.73039063 9.91789062 -4.734375 8.859375 C-4.73308594 7.88355469 -4.73179687 6.90773438 -4.73046875 5.90234375 C-4.72934082 5.00499512 -4.72821289 4.10764648 -4.72705078 3.18310547 C-4.50230583 -0.43910459 -3.78245757 0.10267257 0 0 Z " fill="#FE851B" transform="translate(243.59765625,269.90234375)"/>
<path d="M0 0 C0.33 0 0.66 0 1 0 C1 1.65 1 3.3 1 5 C-33.32 5 -67.64 5 -103 5 C-103 8.63 -103 12.26 -103 16 C-115.02081528 20.00693843 -128.32894813 17 -141 17 C-141.33 56.6 -141.66 96.2 -142 137 C-128.8 137 -115.6 137 -102 137 C-102 146.24 -102 155.48 -102 165 C-105.3 165 -108.6 165 -112 165 C-112 164.67 -112 164.34 -112 164 C-109.36 163.67 -106.72 163.34 -104 163 C-104 154.75 -104 146.5 -104 138 C-116.87 138 -129.74 138 -143 138 C-143 97.41 -143 56.82 -143 15 C-130.46 14.67 -117.92 14.34 -105 14 C-104.67 10.7 -104.34 7.4 -104 4 C-69.68 4 -35.36 4 0 4 C0 2.68 0 1.36 0 0 Z " fill="#FE8B28" transform="translate(367,203)"/>
<path d="M0 0 C9.37931034 0 9.37931034 0 13 3 C15.08101201 5.65508428 15.91525453 7.56685649 16.5625 10.875 C15.75778347 15.34564738 13.2574991 17.93660059 10 21 C8 22 8 22 0 22 C0 14.74 0 7.48 0 0 Z " fill="#FE851B" transform="translate(375,265)"/>
<path d="M0 0 C1.66611905 -0.042721 3.33382885 -0.04063832 5 0 C6.71567792 1.71567792 6.13015825 3.97372735 6.1328125 6.3125 C6.13474609 7.92511719 6.13474609 7.92511719 6.13671875 9.5703125 C6.13285156 10.70210938 6.12898438 11.83390625 6.125 13 C6.13080078 14.69769531 6.13080078 14.69769531 6.13671875 16.4296875 C6.13542969 17.50476563 6.13414062 18.57984375 6.1328125 19.6875 C6.13168457 20.68136719 6.13055664 21.67523438 6.12939453 22.69921875 C6 25 6 25 5 26 C2.48863896 26.09975032 0.01096585 26.13882183 -2.5 26.125 C-3.20253906 26.12886719 -3.90507812 26.13273437 -4.62890625 26.13671875 C-9.87338622 26.12661378 -9.87338622 26.12661378 -11 25 C-11.08713831 23.29227642 -11.10700007 21.58101351 -11.09765625 19.87109375 C-11.09443359 18.83662109 -11.09121094 17.80214844 -11.08789062 16.73632812 C-11.07951172 15.64771484 -11.07113281 14.55910156 -11.0625 13.4375 C-11.05798828 12.34501953 -11.05347656 11.25253906 -11.04882812 10.12695312 C-11.03699826 7.41791505 -11.02051543 4.70898401 -11 2 C-10.34 2 -9.68 2 -9 2 C-9 9.26 -9 16.52 -9 24 C-4.71 24 -0.42 24 4 24 C4 16.41 4 8.82 4 1 C2.68 0.67 1.36 0.34 0 0 Z " fill="#FE9337" transform="translate(188,270)"/>
<path d="M0 0 C9.37931034 0 9.37931034 0 13 3 C15.89446841 6.69294245 16.41307941 9.35285663 16 14 C15.67 14.66 15.34 15.32 15 16 C14.34 16 13.68 16 13 16 C13.06510417 14.046875 13.13020833 12.09375 13.1953125 10.140625 C12.96131651 7.57602897 12.49035364 6.10830515 11 4 C8.82791412 3.08839907 8.82791412 3.08839907 6.375 2.75 C4.93125 2.5025 3.4875 2.255 2 2 C2 7.94 2 13.88 2 20 C5.3 19.34 8.6 18.68 12 18 C10.5 20 10.5 20 8 22 C5.36 22 2.72 22 0 22 C0 14.74 0 7.48 0 0 Z " fill="#FE9639" transform="translate(375,265)"/>
<path d="M0 0 C0.61190186 0.32145996 1.22380371 0.64291992 1.85424805 0.97412109 C6.34232843 2.43775429 10.63784687 2.3574921 15.33203125 2.4140625 C16.81965218 2.44311172 16.81965218 2.44311172 18.33732605 2.4727478 C21.4956307 2.53238453 24.6539721 2.57886555 27.8125 2.625 C29.95769792 2.6631944 32.10288075 2.70224698 34.24804688 2.7421875 C39.49856362 2.83807292 44.74917176 2.92316678 50 3 C46.08599967 5.60933355 42.74533718 5.30572426 38.203125 5.30078125 C36.90263214 5.30720894 36.90263214 5.30720894 35.5758667 5.31376648 C33.7400398 5.31951027 31.90419014 5.32000968 30.06835938 5.31567383 C27.27433794 5.31252741 24.48138946 5.33592465 21.6875 5.36132812 C19.901043 5.36360263 18.11458316 5.36430391 16.328125 5.36328125 C15.49871399 5.372491 14.66930298 5.38170074 13.8147583 5.39118958 C8.46975255 5.3490796 4.7772252 4.41939988 0 2 C0 1.34 0 0.68 0 0 Z " fill="#FE9234" transform="translate(320,304)"/>
<path d="M0 0 C1.48831242 0.00667405 2.97660807 0.01863442 4.46484375 0.03515625 C5.22345703 0.03966797 5.98207031 0.04417969 6.76367188 0.04882812 C8.64326246 0.06064945 10.52281274 0.07858547 12.40234375 0.09765625 C12.07234375 0.75765625 11.74234375 1.41765625 11.40234375 2.09765625 C7.11234375 1.76765625 2.82234375 1.43765625 -1.59765625 1.09765625 C-1.59765625 8.68765625 -1.59765625 16.27765625 -1.59765625 24.09765625 C3.02234375 24.09765625 7.64234375 24.09765625 12.40234375 24.09765625 C12.07234375 24.75765625 11.74234375 25.41765625 11.40234375 26.09765625 C6.45234375 26.09765625 1.50234375 26.09765625 -3.59765625 26.09765625 C-4.59025243 23.11986771 -4.72657207 21.13522674 -4.73046875 18.02734375 C-4.73175781 17.04894531 -4.73304688 16.07054687 -4.734375 15.0625 C-4.73050781 14.04285156 -4.72664062 13.02320313 -4.72265625 11.97265625 C-4.72652344 10.94527344 -4.73039063 9.91789062 -4.734375 8.859375 C-4.73308594 7.88355469 -4.73179687 6.90773438 -4.73046875 5.90234375 C-4.72934082 5.00499512 -4.72821289 4.10764648 -4.72705078 3.18310547 C-4.50230583 -0.43910459 -3.78245757 0.10267257 0 0 Z " fill="#FE8F2F" transform="translate(243.59765625,269.90234375)"/>
<path d="M0 0 C2 2 2 2 2.13525391 5.99072266 C2.09286195 7.71545949 2.03917982 9.43994148 1.9765625 11.1640625 C1.95153656 12.07127045 1.92651062 12.97847839 1.90072632 13.91317749 C1.81839936 16.81749134 1.72185934 19.72113795 1.625 22.625 C1.56677339 24.59111837 1.50946985 26.55726431 1.453125 28.5234375 C1.31280169 33.34934373 1.15972802 38.17469862 1 43 C-1.66896431 40.33103569 -1.23824462 38.32876593 -1.25224304 34.70042419 C-1.24505753 33.83893265 -1.23787201 32.9774411 -1.23046875 32.08984375 C-1.23001053 31.20720352 -1.22955231 30.32456329 -1.2290802 29.41517639 C-1.22605687 27.54817359 -1.21816817 25.68117333 -1.20581055 23.81420898 C-1.18755226 20.94571061 -1.18530084 18.07753479 -1.18554688 15.20898438 C-1.18063188 13.39843469 -1.17480364 11.58788721 -1.16796875 9.77734375 C-1.16685593 8.91382797 -1.1657431 8.05031219 -1.16459656 7.16062927 C-1.11604615 1.11604615 -1.11604615 1.11604615 0 0 Z " fill="#FE9031" transform="translate(317,257)"/>
<path d="M0 0 C3.81862492 4.49789955 6.87934123 9.38503573 10 14.375 C10.52078125 15.2 11.0415625 16.025 11.578125 16.875 C14.50031895 21.52394492 17.31468382 26.21032547 20 31 C15.67140243 29.50502161 13.9472072 26.29420828 11.6875 22.5625 C10.9012737 21.29542891 10.11481233 20.02850365 9.328125 18.76171875 C8.93947266 18.12927246 8.55082031 17.49682617 8.15039062 16.84521484 C5.92541549 13.27637739 3.5561322 9.79803852 1.21484375 6.3046875 C0 4 0 4 0 0 Z " fill="#FE8E25" transform="translate(382,47)"/>
<path d="M0 0 C0 0.99 0 1.98 0 3 C-11.04251881 5.35424259 -21.76363196 7.51046781 -33 5 C-33 4.67 -33 4.34 -33 4 C-32.41621582 3.98541748 -31.83243164 3.97083496 -31.23095703 3.95581055 C-28.52838041 3.88030915 -25.82690536 3.78399662 -23.125 3.6875 C-21.74828125 3.65366211 -21.74828125 3.65366211 -20.34375 3.61914062 C-14.53683178 3.39422478 -9.50129091 2.49638113 -3.99169922 0.63208008 C-2 0 -2 0 0 0 Z " fill="#FE9530" transform="translate(327,179)"/>
<path d="M0 0 C0.66 0 1.32 0 2 0 C3.30511936 1.88717259 4.51781844 3.83851874 5.6875 5.8125 C6.39727179 7.00460108 7.10823211 8.19599523 7.8203125 9.38671875 C8.1802832 9.9904834 8.54025391 10.59424805 8.91113281 11.21630859 C11.10283249 14.8065682 13.48740202 18.27682487 15.84765625 21.7578125 C16.22792969 22.49773437 16.60820312 23.23765625 17 24 C16.67 24.99 16.34 25.98 16 27 C13.13926983 23.10622838 10.5157261 19.27284611 8.1796875 15.03515625 C6.0634329 11.38426669 3.70613099 7.88223733 1.390625 4.35546875 C0 2 0 2 0 0 Z " fill="#FE9028" transform="translate(410,93)"/>
<path d="M0 0 C3 0 3 0 5.5625 2.4375 C6.366875 3.283125 7.17125 4.12875 8 5 C8.66 5.33 9.32 5.66 10 6 C10 6.66 10 7.32 10 8 C7.08482708 6.92598892 5.22189824 6.22189824 3 4 C-1.27215881 4.1525771 -3.8812349 7.39042104 -7 10 C-9.875 11.3125 -9.875 11.3125 -12 12 C-12 11.34 -12 10.68 -12 10 C-10.68 9.67 -9.36 9.34 -8 9 C-8 8.34 -8 7.68 -8 7 C-6.34467377 5.98133771 -4.67739862 4.98189187 -3 4 C-2.67 3.34 -2.34 2.68 -2 2 C-1.34 2 -0.68 2 0 2 C0 1.34 0 0.68 0 0 Z " fill="#FE9328" transform="translate(345,166)"/>
<path d="M0 0 C8.83700441 -0.44933921 8.83700441 -0.44933921 13 3 C15.89446841 6.69294245 16.41307941 9.35285663 16 14 C15.67 14.66 15.34 15.32 15 16 C14.34 16 13.68 16 13 16 C13.06510417 14.046875 13.13020833 12.09375 13.1953125 10.140625 C12.95758006 7.53507749 12.5487625 6.12504623 11 4 C8.37372009 2.8658597 8.37372009 2.8658597 5.375 2.25 C4.37210937 2.00765625 3.36921875 1.7653125 2.3359375 1.515625 C1.56507813 1.34546875 0.79421875 1.1753125 0 1 C0 0.67 0 0.34 0 0 Z " fill="#FE8F29" transform="translate(375,265)"/>
<path d="M0 0 C2.24718081 2.78192072 3.68328149 5.34471161 4.9375 8.6875 C6.56611344 12.93195587 8.35142705 17.0646121 10.265625 21.1875 C11 23 11 23 11 25 C10.34 25 9.68 25 9 25 C7.48454537 21.7778676 5.99044289 18.54626873 4.5 15.3125 C4.07074219 14.40048828 3.64148438 13.48847656 3.19921875 12.54882812 C2.79316406 11.66259766 2.38710938 10.77636719 1.96875 9.86328125 C1.59169922 9.05157471 1.21464844 8.23986816 0.82617188 7.40356445 C-0.07133272 4.79247322 -0.15359499 2.74124384 0 0 Z " fill="#FE8F29" transform="translate(318,64)"/>
<path d="M0 0 C0.99 0 1.98 0 3 0 C3.515625 0.70125 4.03125 1.4025 4.5625 2.125 C8.02791056 6.21240733 12.35473492 8.42028218 17 11 C16.67 11.66 16.34 12.32 16 13 C10.68739276 10.64030596 7.09361283 8.2073243 3 4 C0.82653432 3.13880866 0.82653432 3.13880866 -1 3 C-0.67 2.01 -0.34 1.02 0 0 Z " fill="#FE8D29" transform="translate(86,166)"/>
<path d="M0 0 C2 1 2 1 3.3125 3.25 C5.20555675 6.33498138 7.3823909 8.51007915 10 11 C11.33333333 12.33333333 12.66666667 13.66666667 14 15 C8.60678727 13.982859 4.72760961 10.51838135 1.66015625 6.046875 C0.71702172 4.39555049 -0.14954419 2.70091161 -1 1 C-0.67 0.67 -0.34 0.34 0 0 Z " fill="#FE8A27" transform="translate(4,154)"/>
<path d="M0 0 C0.66 0 1.32 0 2 0 C0.55797524 4.15151338 -1.5010438 7.29978445 -4.125 10.8125 C-5.21167969 12.27623047 -5.21167969 12.27623047 -6.3203125 13.76953125 C-6.87460937 14.50558594 -7.42890625 15.24164063 -8 16 C-8.33 15.34 -8.66 14.68 -9 14 C-6.45283688 9.00364157 -3.43578591 4.43035551 0 0 Z " fill="#FE8F2B" transform="translate(30,79)"/>
<path d="M0 0 C0.79664063 0.38478516 0.79664063 0.38478516 1.609375 0.77734375 C1.609375 1.43734375 1.609375 2.09734375 1.609375 2.77734375 C0.949375 2.81859375 0.289375 2.85984375 -0.390625 2.90234375 C-4.19767369 4.01273295 -6.52185463 6.06324581 -9.5234375 8.59765625 C-10.13960937 8.98695313 -10.75578125 9.37625 -11.390625 9.77734375 C-12.380625 9.44734375 -13.370625 9.11734375 -14.390625 8.77734375 C-12.48512904 7.24036352 -10.56838907 5.72343121 -8.640625 4.21484375 C-8.10179687 3.77720703 -7.56296875 3.33957031 -7.0078125 2.88867188 C-2.92568219 -0.27249001 -2.92568219 -0.27249001 0 0 Z " fill="#FE8827" transform="translate(261.390625,166.22265625)"/>
<path d="M0 0 C0.66 0 1.32 0 2 0 C1.85764543 1.72945653 1.71095618 3.45855654 1.5625 5.1875 C1.48128906 6.15042969 1.40007812 7.11335938 1.31640625 8.10546875 C1.02333849 10.78649602 0.57296246 13.3662986 0 16 C-2.38825352 12.35570204 -1.94295451 9.9306564 -1.125 5.75 C-0.92132813 4.67234375 -0.71765625 3.5946875 -0.5078125 2.484375 C-0.34023437 1.66453125 -0.17265625 0.8446875 0 0 Z " fill="#FE8B28" transform="translate(174,106)"/>
<path d="M0 0 C0.33 0.66 0.66 1.32 1 2 C-1.95664519 3.4783226 -4.74229737 3.06032783 -8 3 C-8.33 4.98 -8.66 6.96 -9 9 C-9.33 9 -9.66 9 -10 9 C-10.04241723 6.66705225 -10.04092937 4.33297433 -10 2 C-8.41727399 0.41727399 -6.61965997 0.65264253 -4.4375 0.4375 C-3.19806641 0.31181641 -3.19806641 0.31181641 -1.93359375 0.18359375 C-0.97646484 0.09271484 -0.97646484 0.09271484 0 0 Z " fill="#FE9336" transform="translate(385,293)"/>
<path d="M0 0 C0.99 0 1.98 0 3 0 C2.01 6.27 1.02 12.54 0 19 C-0.33 19 -0.66 19 -1 19 C-0.67 12.73 -0.34 6.46 0 0 Z " fill="#FE8E2D" transform="translate(180,62)"/>
<path d="M0 0 C0.66 0 1.32 0 2 0 C3.76171875 2.30078125 3.76171875 2.30078125 5.6875 5.3125 C6.33074219 6.29863281 6.97398437 7.28476563 7.63671875 8.30078125 C8.08660156 9.19152344 8.53648437 10.08226563 9 11 C8.67 11.99 8.34 12.98 8 14 C6.84669053 12.42210402 5.70262073 10.8374518 4.5625 9.25 C3.92441406 8.36828125 3.28632813 7.4865625 2.62890625 6.578125 C1.1724919 4.27300875 0.44068179 2.65650428 0 0 Z " fill="#FE8C29" transform="translate(401,79)"/>
<path d="M0 0 C0.66 0 1.32 0 2 0 C0.40956621 5.08938811 -2.7446951 8.87456643 -6 13 C-6.33 12.34 -6.66 11.68 -7 11 C-5.63671875 8.3984375 -5.63671875 8.3984375 -3.6875 5.375 C-3.05199219 4.37210938 -2.41648437 3.36921875 -1.76171875 2.3359375 C-1.18035156 1.56507812 -0.59898438 0.79421875 0 0 Z " fill="#FE942D" transform="translate(64,27)"/>
<path d="M0 0 C0.66 0 1.32 0 2 0 C0.6302836 3.99500618 -1.25722422 6.80009492 -4 10 C-4.66 9.67 -5.32 9.34 -6 9 C-5.05016642 7.49460339 -4.08988109 5.99579653 -3.125 4.5 C-2.59132812 3.6646875 -2.05765625 2.829375 -1.5078125 1.96875 C-0.76144531 0.99421875 -0.76144531 0.99421875 0 0 Z " fill="#FE8D2F" transform="translate(37,68)"/>
<path d="M0 0 C4.88764045 5.86516854 4.88764045 5.86516854 6 9 C5.71050922 10.34353414 5.38155437 11.67965718 5 13 C4.15930585 11.39967863 3.32768495 9.79458829 2.5 8.1875 C1.80390625 6.84751953 1.80390625 6.84751953 1.09375 5.48046875 C0 3 0 3 0 0 Z " fill="#FE8D26" transform="translate(308,43)"/>
<path d="M0 0 C0.66 0.33 1.32 0.66 2 1 C0.92456217 1.98783194 -0.16073217 2.96493943 -1.25 3.9375 C-2.15492187 4.75541016 -2.15492187 4.75541016 -3.078125 5.58984375 C-5.08467305 7.06212799 -6.57002449 7.57529189 -9 8 C-8.67 7.34 -8.34 6.68 -8 6 C-7.34 6 -6.68 6 -6 6 C-6 5.34 -6 4.68 -6 4 C-4.03852126 2.61061923 -2.03833424 1.2739589 0 0 Z " fill="#FE9327" transform="translate(83,169)"/>
<path d="M0 0 C0.66 0.33 1.32 0.66 2 1 C-1.01887244 4.48331435 -3.56909529 5.79157144 -8 7 C-8 6.34 -8 5.68 -8 5 C-6.3203125 3.67578125 -6.3203125 3.67578125 -4.125 2.3125 C-3.40570313 1.85488281 -2.68640625 1.39726562 -1.9453125 0.92578125 C-1.30335938 0.62027344 -0.66140625 0.31476563 0 0 Z " fill="#FE8B29" transform="translate(168,170)"/>
<path d="M0 0 C0.66 0.33 1.32 0.66 2 1 C1.21718695 2.33855056 0.42348123 3.67073644 -0.375 5 C-0.81585938 5.7425 -1.25671875 6.485 -1.7109375 7.25 C-2.34902344 8.11625 -2.34902344 8.11625 -3 9 C-3.66 9 -4.32 9 -5 9 C-3.7508258 5.54074837 -2.32472205 2.85306797 0 0 Z " fill="#FE8E2F" transform="translate(50,49)"/>
<path d="M0 0 C0.66 0 1.32 0 2 0 C3.65 2.97 5.3 5.94 7 9 C2.81800367 6.90900184 2.00340633 6.00681267 0 2 C0 1.34 0 0.68 0 0 Z " fill="#FE8C2B" transform="translate(369,28)"/>
<path d="M0 0 C0.66 0.33 1.32 0.66 2 1 C-1.75 6.875 -1.75 6.875 -4 8 C-3.40072174 4.64404172 -2.15377564 2.62198774 0 0 Z " fill="#FE8E2C" transform="translate(11,108)"/>
<path d="M0 0 C0.66 0.33 1.32 0.66 2 1 C0.26440562 4.057952 -1.38472619 6.63379989 -4 9 C-3.46930939 5.17902761 -2.50298434 2.93828597 0 0 Z " fill="#FE8D2B" transform="translate(18,97)"/>
<path d="M0 0 C-0.625 1.875 -0.625 1.875 -2 4 C-5.125 5.25 -5.125 5.25 -8 6 C-8 5.34 -8 4.68 -8 4 C-2.58823529 0 -2.58823529 0 0 0 Z " fill="#FE8B28" transform="translate(394,289)"/>
<path d="M0 0 C0.86625 0.3403125 0.86625 0.3403125 1.75 0.6875 C1.75 1.3475 1.75 2.0075 1.75 2.6875 C0.6053125 2.9040625 0.6053125 2.9040625 -0.5625 3.125 C-3.33172908 3.6507594 -3.33172908 3.6507594 -6.25 4.6875 C-6.25 4.0275 -6.25 3.3675 -6.25 2.6875 C-3.02697842 -0.42041367 -3.02697842 -0.42041367 0 0 Z " fill="#FE9030" transform="translate(261.25,166.3125)"/>
</svg>
