<?xml version="1.0" standalone="no"?>
<!DOCTYPE svg PUBLIC "-//W3C//DTD SVG 20010904//EN"
 "http://www.w3.org/TR/2001/REC-SVG-20010904/DTD/svg10.dtd">
<svg version="1.0" xmlns="http://www.w3.org/2000/svg"
 width="auto" height="auto" viewBox="12 10 163.000000 163.000000"
 preserveAspectRatio="xMidYMid meet">

<g transform="translate(0.000000,185.000000) scale(0.101000,-0.101000)"
fill="#7562e0" stroke="none">
<path d="M483 1715 c-35 -8 -87 -26 -115 -42 -68 -36 -155 -123 -191 -190 -51
-95 -57 -152 -57 -558 0 -403 6 -458 55 -556 58 -114 193 -214 324 -239 70
-13 781 -13 852 0 181 34 334 187 369 369 13 71 13 781 0 852 -25 131 -125
266 -239 324 -99 50 -152 55 -561 54 -276 0 -391 -4 -437 -14z m580 -413 c9
-8 17 -22 17 -30 0 -8 -41 -170 -92 -361 -93 -350 -109 -391 -151 -391 -28 0
-60 36 -59 66 1 28 178 699 189 717 8 13 46 25 63 19 8 -3 23 -12 33 -20z
m-343 -152 c34 -34 25 -58 -59 -144 l-79 -81 79 -82 c55 -57 79 -90 79 -107 0
-32 -45 -69 -74 -60 -12 3 -69 54 -128 113 -86 86 -108 113 -108 136 0 22 22
50 108 137 117 116 142 128 182 88z m592 -88 c142 -142 142 -134 1 -274 -60
-58 -118 -109 -130 -113 -26 -7 -73 32 -73 61 0 9 37 54 82 100 l82 84 -82 84
c-45 46 -82 91 -82 100 0 24 45 66 72 66 15 0 57 -35 130 -108z"/>
</g>
</svg>
